<svg xmlns="http://www.w3.org/2000/svg" viewBox="0 0 23.06 38.75"><defs><style>.cls-1,.cls-2{fill:#fff;}.cls-2{font-size:9.57px;font-family:MyriadPro-Regular, Myriad Pro;}.cls-3{letter-spacing:-0.01em;}.cls-4,.cls-5{font-size:10px;}.cls-4{letter-spacing:-0.01em;}</style></defs><g id="Layer_2" data-name="Layer 2"><g id="UI"><g id="Profile_Icon" data-name="Profile Icon"><path class="cls-1" d="M21.15,25.67H1.34c0-.58,0-1.15.1-1.71a11.41,11.41,0,0,1,2.49-6.2,25.44,25.44,0,0,1,3.33-3.15c.06-.06.24,0,.34,0a8.4,8.4,0,0,0,3.22.84,8,8,0,0,0,4-.84.37.37,0,0,1,.48.05A25,25,0,0,1,18.69,18,11.12,11.12,0,0,1,21,23.63C21.06,24.29,21.1,25,21.15,25.67Z"/><path class="cls-1" d="M11.25,13.54A6.77,6.77,0,1,1,18,6.92,6.75,6.75,0,0,1,11.25,13.54Z"/><text class="cls-2" transform="translate(0 36.25)"><tspan class="cls-3">L</tspan><tspan x="4.38" y="0">o</tspan><tspan class="cls-4" x="9.64" y="0">g</tspan><tspan class="cls-5" x="15.17" y="0">in</tspan></text></g></g></g></svg>