<svg xmlns="http://www.w3.org/2000/svg" viewBox="0 0 54.59 47.14"><defs><style>.cls-1,.cls-2{fill:#fff;}.cls-2{font-size:18.87px;font-family:Roboto-Regular, Roboto;}.cls-3{letter-spacing:-0.01em;}</style></defs><g id="Layer_2" data-name="Layer 2"><g id="Payment_page" data-name="Payment page"><g id="UI_copy_4" data-name="UI copy 4"><g id="header_thing"><g id="Profile_Icon" data-name="Profile Icon"><path class="cls-1" d="M37.26,25.65l-19.81,0c0-.57,0-1.14.09-1.7A11.34,11.34,0,0,1,20,17.78a25.43,25.43,0,0,1,3.31-3.17.47.47,0,0,1,.35,0,8.18,8.18,0,0,0,3.22.84,8,8,0,0,0,4-.85.38.38,0,0,1,.48.05,25.49,25.49,0,0,1,3.37,3.28,11.14,11.14,0,0,1,2.31,5.67C37.16,24.27,37.2,24.94,37.26,25.65Z"/><path class="cls-1" d="M27.33,13.54a6.77,6.77,0,1,1,6.75-6.63A6.75,6.75,0,0,1,27.33,13.54Z"/><text class="cls-2" transform="matrix(1, 0, 0, 1, 0.03, 42.03)">P<tspan class="cls-3" x="11.9" y="0">r</tspan><tspan x="18.1" y="0">ofile</tspan></text></g></g></g></g></g></svg>