<svg xmlns="http://www.w3.org/2000/svg" viewBox="0 0 38.08 46.96"><defs><style>.cls-1,.cls-2{fill:#fff;}.cls-2{font-size:19.67px;font-family:Roboto-Regular, Roboto;}.cls-3{letter-spacing:0.02em;}</style></defs><g id="Layer_2" data-name="Layer 2"><g id="Payment_page" data-name="Payment page"><g id="UI_copy_4" data-name="UI copy 4"><g id="header_thing"><g id="Shopping_cart" data-name="Shopping cart"><path class="cls-1" d="M32.23,3.89a4.68,4.68,0,0,1-.15.67c-.22.57-.45,1.13-.7,1.69-1.13,2.52-2.26,5.05-3.4,7.57-.16.34-.36.67-.55,1a2.1,2.1,0,0,1-1.88,1.11L25,16,10.88,16h-.22s0,.07,0,.09a10.08,10.08,0,0,0,.57,1.08A1.94,1.94,0,0,0,13,18H25.39a.66.66,0,0,1,.72.65.65.65,0,0,1-.63.68,1,1,0,0,1-.17,0c-4,0-8.11,0-12.16,0a3.55,3.55,0,0,1-3.3-1.89,8.52,8.52,0,0,1-.74-1.95c-.55-2-1.13-3.95-1.71-5.91C6.69,7.21,6,4.81,5.26,2.41a1.64,1.64,0,0,0-1.5-1.08h-3a.74.74,0,0,1-.52-.17A.68.68,0,0,1,0,.44.66.66,0,0,1,.64,0l4,0a2.14,2.14,0,0,1,1.1.3,1.55,1.55,0,0,1,.76,1q1.85,6.58,3.7,13.15c0,.16.1.21.26.21l14.49,0,.57,0a.8.8,0,0,0,.72-.44c.26-.47.53-.94.75-1.43,1.11-2.44,2.19-4.89,3.28-7.34.18-.4.36-.8.51-1.22a2.25,2.25,0,0,0,.08-.64c0-.19-.07-.27-.27-.29s-.4,0-.6,0l-15.09,0h-5a.66.66,0,0,1-.73-.52.65.65,0,0,1,.51-.8,1.46,1.46,0,0,1,.29,0l16.53,0c1.24,0,2.47,0,3.71,0A3.56,3.56,0,0,1,31,2,1.53,1.53,0,0,1,32.2,3.22a.53.53,0,0,0,0,.12Z"/><path class="cls-1" d="M25,26.24c-.32-.1-.67-.16-1-.29A3.11,3.11,0,0,1,25,20,3.12,3.12,0,0,1,26,26.16l-.35.07Zm-1.53-3.12a1.85,1.85,0,1,0,1.85-1.84A1.87,1.87,0,0,0,23.47,23.12Z"/><path class="cls-1" d="M12.25,26.26a8.41,8.41,0,0,1-1-.3,3.09,3.09,0,0,1-1.79-3.3,3.13,3.13,0,1,1,3.8,3.52l-.38.08Zm.29-5a1.84,1.84,0,1,0,1.86,1.85A1.86,1.86,0,0,0,12.54,21.3Z"/><path class="cls-1" d="M23.47,23.12A1.85,1.85,0,1,1,25.33,25,1.85,1.85,0,0,1,23.47,23.12Z"/><path class="cls-1" d="M12.54,21.3a1.84,1.84,0,1,1-1.84,1.85A1.85,1.85,0,0,1,12.54,21.3Z"/><text class="cls-2" transform="matrix(1, 0, 0, 1, 1, 41.63)">Ca<tspan class="cls-3" x="23.51" y="0">r</tspan><tspan x="30.64" y="0">t</tspan></text></g></g></g></g></g></svg>