<svg xmlns="http://www.w3.org/2000/svg" viewBox="0 0 23.08 38.69"><defs><style>.cls-1,.cls-2{fill:#fff;}.cls-2{font-size:9.57px;font-family:MyriadPro-Regular, Myriad Pro;letter-spacing:-0.01em;}.cls-3{letter-spacing:0em;}.cls-4,.cls-5{font-size:10px;}.cls-4{letter-spacing:-0.01em;}.cls-5{letter-spacing:0em;}</style></defs><g id="Layer_2" data-name="Layer 2"><g id="Payment_page" data-name="Payment page"><g id="UI_copy_4" data-name="UI copy 4"><g id="header_thing"><g id="Profile_Icon" data-name="Profile Icon"><path class="cls-1" d="M21.17,25.65l-19.81,0c0-.57,0-1.14.1-1.7a11.32,11.32,0,0,1,2.48-6.2,26.17,26.17,0,0,1,3.32-3.17.45.45,0,0,1,.34,0,8.22,8.22,0,0,0,3.22.84,8,8,0,0,0,4-.85.38.38,0,0,1,.48.05,26.2,26.2,0,0,1,3.38,3.28A11.12,11.12,0,0,1,21,23.61C21.08,24.27,21.11,24.94,21.17,25.65Z"/><path class="cls-1" d="M11.25,13.54A6.77,6.77,0,1,1,18,6.91,6.76,6.76,0,0,1,11.25,13.54Z"/><text class="cls-2" transform="matrix(1, 0, 0, 1, 0.01, 36.19)">L<tspan class="cls-3" x="4.39" y="0">o</tspan><tspan class="cls-4" x="9.64" y="0">g</tspan><tspan class="cls-5" x="15.17" y="0">in</tspan></text></g></g></g></g></g></svg>