<svg xmlns="http://www.w3.org/2000/svg" viewBox="0 0 47.66 46.5"><defs><style>.cls-1,.cls-2{fill:#fff;}.cls-2{font-size:18.87px;font-family:Roboto-Regular, Roboto;}.cls-3{font-size:19.7px;letter-spacing:0em;}</style></defs><g id="Layer_2" data-name="Layer 2"><g id="Payment_page" data-name="Payment page"><g id="UI_copy_4" data-name="UI copy 4"><g id="header_thing"><g id="Profile_Icon" data-name="Profile Icon"><path class="cls-1" d="M32.33,25.65l-19.81,0c0-.57,0-1.14.09-1.7a11.41,11.41,0,0,1,2.49-6.2,24.89,24.89,0,0,1,3.32-3.17.45.45,0,0,1,.34,0,8.22,8.22,0,0,0,3.22.84,8,8,0,0,0,4-.85.38.38,0,0,1,.48.05,26.2,26.2,0,0,1,3.38,3.28,11.21,11.21,0,0,1,2.3,5.67C32.24,24.27,32.27,24.94,32.33,25.65Z"/><path class="cls-1" d="M22.41,13.54a6.77,6.77,0,1,1,6.74-6.63A6.76,6.76,0,0,1,22.41,13.54Z"/><text class="cls-2" transform="matrix(1, 0, 0, 1, 0.03, 41.16)">Lo<tspan class="cls-3" x="20.91" y="0">gin</tspan></text></g></g></g></g></g></svg>