<svg xmlns="http://www.w3.org/2000/svg" viewBox="0 0 32.09 38.9"><defs><style>.cls-1,.cls-2{fill:#fff;}.cls-2{font-size:10px;font-family:MyriadPro-Regular, Myriad Pro;}.cls-3{letter-spacing:-0.01em;}.cls-4{letter-spacing:0.02em;}</style></defs><g id="Layer_2" data-name="Layer 2"><g id="Payment_page" data-name="Payment page"><g id="UI_copy_4" data-name="UI copy 4"><g id="header_thing"><g id="Shopping_cart" data-name="Shopping cart"><path class="cls-1" d="M32.09,3.88a4.86,4.86,0,0,1-.15.66c-.22.57-.45,1.13-.7,1.68-1.13,2.51-2.25,5-3.39,7.53-.16.35-.36.67-.54,1a2.12,2.12,0,0,1-1.88,1.11l-.55,0-14,0h-.23a.64.64,0,0,0,0,.09,8.36,8.36,0,0,0,.56,1.07,1.92,1.92,0,0,0,1.72.88H25.27a.66.66,0,0,1,.73.65.68.68,0,0,1-.64.68H25.2c-4,0-8.07,0-12.11,0A3.57,3.57,0,0,1,9.8,17.39a8,8,0,0,1-.73-1.94c-.55-2-1.13-3.93-1.7-5.89C6.66,7.17,6,4.79,5.23,2.4A1.62,1.62,0,0,0,3.74,1.32h-3a.74.74,0,0,1-.51-.18A.66.66,0,0,1,0,.44.65.65,0,0,1,.63,0C2,0,3.31,0,4.64,0a2.23,2.23,0,0,1,1.1.29,1.56,1.56,0,0,1,.75,1q1.84,6.54,3.68,13.09c.05.15.1.2.26.2l14.42,0,.58,0a.82.82,0,0,0,.72-.43c.25-.48.52-.94.74-1.43,1.1-2.43,2.18-4.86,3.27-7.3.18-.4.35-.8.5-1.22a2.2,2.2,0,0,0,.08-.64c0-.19-.07-.26-.26-.28s-.41,0-.61,0l-15,0h-5a.67.67,0,0,1-.73-.51.65.65,0,0,1,.51-.8,1.37,1.37,0,0,1,.29,0l16.45,0h3.7A3.53,3.53,0,0,1,30.9,2,1.5,1.5,0,0,1,32.05,3.2l0,.12Z"/><path class="cls-1" d="M24.89,26.12a10.11,10.11,0,0,1-1-.29,3.08,3.08,0,0,1-1.8-3.27A3.12,3.12,0,1,1,25.89,26l-.34.08ZM23.37,23a1.84,1.84,0,1,0,1.83-1.84A1.83,1.83,0,0,0,23.37,23Z"/><path class="cls-1" d="M12.19,26.14a8.78,8.78,0,0,1-1-.29A3.09,3.09,0,0,1,9.4,22.56a3.13,3.13,0,0,1,6.15-.16,3.11,3.11,0,0,1-2.36,3.66l-.38.08Zm.3-4.94a1.84,1.84,0,1,0,1.84,1.85A1.85,1.85,0,0,0,12.49,21.2Z"/><path class="cls-1" d="M23.37,23a1.84,1.84,0,1,1,1.84,1.82A1.83,1.83,0,0,1,23.37,23Z"/><path class="cls-1" d="M12.49,21.2A1.84,1.84,0,1,1,10.65,23,1.85,1.85,0,0,1,12.49,21.2Z"/><text class="cls-2" transform="matrix(1, 0, 0, 1, 10.02, 36.4)"><tspan class="cls-3">C</tspan><tspan x="5.73" y="0">a</tspan><tspan class="cls-4" x="10.55" y="0">r</tspan><tspan x="14.06" y="0">t</tspan></text></g></g></g></g></g></svg>